<?xml version="1.0" encoding="UTF-8"?>
<svg xmlns="http://www.w3.org/2000/svg" xmlns:xlink="http://www.w3.org/1999/xlink" width="512px" height="512px" viewBox="0 0 512 512" version="1.1">
<g id="surface1">
<path style=" stroke:none;fill-rule:nonzero;fill:rgb(40.000001%,40.000001%,100%);fill-opacity:1;" d="M 251 155 C 251.140625 167.054688 251.246094 179.113281 251.3125 191.167969 C 251.34375 196.769531 251.382812 202.367188 251.453125 207.964844 C 251.519531 213.367188 251.554688 218.765625 251.570312 224.167969 C 251.582031 226.230469 251.601562 228.292969 251.632812 230.355469 C 251.679688 233.238281 251.683594 236.121094 251.679688 239.007812 C 251.703125 239.863281 251.722656 240.71875 251.746094 241.601562 C 251.722656 243.890625 251.652344 245.804688 251 248 C 248.054688 250.453125 248.054688 250.453125 245 252 C 240.042969 257.535156 236.789062 264.894531 233.222656 271.386719 C 229.6875 277.816406 226.023438 284.167969 222.3125 290.5 C 216.105469 301.097656 209.953125 311.722656 203.824219 322.367188 C 201.53125 326.347656 199.234375 330.324219 196.925781 334.292969 C 195.902344 336.058594 194.878906 337.820312 193.855469 339.585938 C 192.574219 341.792969 191.292969 343.996094 190.011719 346.199219 C 181.992188 358.234375 181.992188 358.234375 180.226562 371.890625 C 181.609375 375.660156 183.804688 378.582031 187 381 C 191.113281 382.601562 194.601562 383.261719 199.003906 383.320312 C 200.183594 383.339844 201.359375 383.359375 202.570312 383.378906 C 203.792969 383.390625 205.015625 383.402344 206.273438 383.414062 C 207.976562 383.441406 207.976562 383.441406 209.710938 383.46875 C 213.933594 383.53125 218.152344 383.578125 222.375 383.625 C 236.542969 383.8125 236.542969 383.8125 251 384 C 251 414.03125 251 444.058594 251 475 C 234.566406 473.828125 234.566406 473.828125 228.125 472.3125 C 227.371094 472.136719 226.617188 471.964844 225.84375 471.785156 C 206.25 467.03125 188.367188 458.023438 173 445 C 172.492188 444.574219 171.984375 444.148438 171.457031 443.710938 C 147.222656 423.292969 131.011719 392.601562 128 361 C 127.617188 354.113281 127.667969 347.207031 127.664062 340.308594 C 127.65625 338.3125 127.652344 336.316406 127.644531 334.320312 C 127.632812 330.152344 127.628906 325.980469 127.628906 321.8125 C 127.628906 316.527344 127.601562 311.242188 127.566406 305.953125 C 127.546875 301.835938 127.542969 297.714844 127.542969 293.59375 C 127.539062 291.644531 127.53125 289.699219 127.515625 287.753906 C 127.246094 250.921875 139.839844 218.355469 165.625 191.875 C 187.617188 170.003906 219.640625 155 251 155 Z M 251 155 "/>
<path style=" stroke:none;fill-rule:nonzero;fill:rgb(40.000001%,40.000001%,100%);fill-opacity:1;" d="M 261 155 C 283.246094 157.339844 283.246094 157.339844 289.5625 159.125 C 290.332031 159.335938 291.101562 159.546875 291.898438 159.765625 C 324.773438 169.277344 352.335938 192.121094 368.945312 221.835938 C 372.667969 228.730469 375.898438 235.707031 378.4375 243.125 C 378.773438 244.089844 378.773438 244.089844 379.113281 245.070312 C 383.808594 259.878906 384.453125 274.789062 384.398438 290.1875 C 384.402344 292.183594 384.402344 294.183594 384.40625 296.179688 C 384.410156 300.339844 384.40625 304.496094 384.390625 308.65625 C 384.375 313.9375 384.382812 319.21875 384.402344 324.5 C 384.414062 328.613281 384.410156 332.730469 384.402344 336.847656 C 384.398438 338.792969 384.402344 340.738281 384.410156 342.683594 C 384.453125 357.855469 383.398438 372.628906 378.3125 387.0625 C 378.058594 387.796875 377.804688 388.535156 377.542969 389.292969 C 365.28125 423.652344 340.105469 449.300781 307.472656 464.890625 C 293.03125 471.363281 276.820312 475 261 475 C 261 444.96875 261 414.941406 261 384 C 289.5625 383.6875 289.5625 383.6875 298.546875 383.613281 C 300.90625 383.578125 303.269531 383.546875 305.628906 383.511719 C 307.453125 383.503906 307.453125 383.503906 309.316406 383.492188 C 317.335938 383.355469 322.824219 382.96875 328.875 377.3125 C 331.425781 373.335938 332.199219 370.667969 332 366 C 329.871094 359.128906 326.429688 353.273438 322.75 347.125 C 321.480469 344.980469 320.214844 342.832031 318.949219 340.6875 C 318.296875 339.585938 317.644531 338.480469 316.96875 337.34375 C 313.796875 331.957031 310.679688 326.542969 307.5625 321.125 C 306.304688 318.941406 305.042969 316.753906 303.785156 314.570312 C 303.160156 313.484375 302.535156 312.398438 301.890625 311.28125 C 300.011719 308.019531 298.128906 304.753906 296.246094 301.492188 C 295.628906 300.417969 295.007812 299.347656 294.371094 298.242188 C 293.128906 296.089844 291.890625 293.941406 290.648438 291.792969 C 287.726562 286.742188 284.816406 281.683594 281.929688 276.613281 C 280.910156 274.816406 279.882812 273.019531 278.859375 271.222656 C 277.570312 268.96875 276.289062 266.710938 275.007812 264.449219 C 269.644531 254.644531 269.644531 254.644531 261 248 C 261 217.308594 261 186.621094 261 155 Z M 261 155 "/>
<path style=" stroke:none;fill-rule:nonzero;fill:rgb(41.960785%,38.039216%,100%);fill-opacity:1;" d="M 255.6875 255.375 C 257.898438 255.410156 257.898438 255.410156 260 256 C 261.488281 257.609375 261.488281 257.609375 262.835938 259.792969 C 263.347656 260.613281 263.859375 261.433594 264.386719 262.28125 C 264.917969 263.179688 265.453125 264.074219 266 265 C 266.542969 265.910156 267.085938 266.820312 267.644531 267.757812 C 269.429688 270.804688 271.1875 273.871094 272.9375 276.9375 C 273.929688 278.667969 274.921875 280.398438 275.914062 282.125 C 276.9375 283.910156 277.957031 285.691406 278.980469 287.476562 C 282.140625 292.992188 285.320312 298.496094 288.5 304 C 289.746094 306.160156 290.992188 308.320312 292.238281 310.480469 C 295.417969 315.992188 298.597656 321.5 301.78125 327.007812 C 303.65625 330.253906 305.523438 333.503906 307.394531 336.753906 C 309.769531 340.878906 312.164062 344.988281 314.574219 349.089844 C 315.132812 350.046875 315.691406 351.003906 316.265625 351.988281 C 317.304688 353.773438 318.351562 355.554688 319.410156 357.328125 C 324.214844 365.609375 324.214844 365.609375 324 370 C 322.34375 372.480469 321.519531 373.554688 319 375 C 314.988281 375.757812 311.019531 375.683594 306.945312 375.648438 C 305.722656 375.65625 304.503906 375.664062 303.242188 375.671875 C 299.898438 375.691406 296.558594 375.6875 293.214844 375.671875 C 289.710938 375.660156 286.210938 375.671875 282.707031 375.679688 C 276.828125 375.6875 270.945312 375.675781 265.0625 375.652344 C 258.269531 375.625 251.476562 375.632812 244.679688 375.660156 C 238.84375 375.683594 233.003906 375.6875 227.164062 375.671875 C 223.679688 375.664062 220.195312 375.664062 216.710938 375.679688 C 212.824219 375.699219 208.941406 375.675781 205.054688 375.648438 C 203.324219 375.664062 203.324219 375.664062 201.5625 375.675781 C 192.882812 375.5625 192.882812 375.5625 189.746094 372.644531 C 188 370 188 370 188.011719 367.027344 C 189.015625 363.945312 190.203125 361.359375 191.808594 358.542969 C 192.671875 357.011719 192.671875 357.011719 193.554688 355.449219 C 194.488281 353.835938 194.488281 353.835938 195.4375 352.1875 C 196.074219 351.066406 196.714844 349.941406 197.371094 348.785156 C 201.625 341.328125 205.949219 333.914062 210.328125 326.53125 C 213.660156 320.902344 216.921875 315.230469 220.1875 309.5625 C 220.820312 308.464844 221.453125 307.367188 222.105469 306.234375 C 225.078125 301.078125 228.050781 295.914062 231.015625 290.75 C 250.859375 256.191406 250.859375 256.191406 255.6875 255.375 Z M 252.273438 288.421875 C 250.355469 292.308594 250.589844 295.941406 250.636719 300.21875 C 250.636719 301.113281 250.636719 302.007812 250.636719 302.929688 C 250.636719 304.820312 250.648438 306.710938 250.664062 308.597656 C 250.6875 311.488281 250.683594 314.378906 250.679688 317.269531 C 250.683594 319.105469 250.691406 320.945312 250.699219 322.78125 C 250.699219 323.644531 250.699219 324.507812 250.695312 325.398438 C 250.707031 326.207031 250.714844 327.011719 250.726562 327.84375 C 250.730469 328.554688 250.734375 329.261719 250.738281 329.988281 C 251.046875 332.363281 251.75 333.96875 253 336 C 254.898438 336.996094 254.898438 336.996094 257 337 C 260.25 335.277344 260.25 335.277344 261 332 C 261.101562 330.65625 261.148438 329.308594 261.160156 327.960938 C 261.171875 327.152344 261.179688 326.34375 261.191406 325.511719 C 261.195312 324.644531 261.199219 323.773438 261.203125 322.878906 C 261.207031 321.984375 261.214844 321.085938 261.21875 320.164062 C 261.230469 318.265625 261.238281 316.371094 261.242188 314.476562 C 261.25 311.578125 261.28125 308.679688 261.3125 305.78125 C 261.320312 303.9375 261.324219 302.097656 261.328125 300.253906 C 261.347656 298.953125 261.347656 298.953125 261.367188 297.628906 C 261.351562 294.085938 261.3125 291.628906 259.730469 288.421875 C 257.097656 286.257812 254.902344 286.257812 252.273438 288.421875 Z M 253 349 C 251.710938 351.265625 251.710938 351.265625 251 354 C 252.261719 356.324219 252.261719 356.324219 254 358 C 256.445312 357.8125 256.445312 357.8125 259 357 C 260.574219 355.265625 260.574219 355.265625 261 353 C 260.21875 350.765625 260.21875 350.765625 259 349 C 257.019531 349 255.039062 349 253 349 Z M 253 349 "/>
<path style=" stroke:none;fill-rule:nonzero;fill:rgb(24.705882%,55.686277%,100%);fill-opacity:1;" d="M 295.875 95 C 297.589844 96.324219 299.300781 97.65625 301 99 C 302.03125 99.742188 303.0625 100.484375 304.125 101.25 C 317.726562 114.261719 325.714844 131.761719 326.242188 150.535156 C 326.285156 155.363281 326.179688 160.175781 326 165 C 321.542969 163.625 317.539062 161.835938 313.375 159.75 C 301.15625 153.855469 287.472656 149.671875 274 148 C 272.707031 147.835938 272.707031 147.835938 271.390625 147.667969 C 242.945312 144.585938 215.019531 150.710938 189.855469 164.117188 C 188 165 188 165 186 165 C 185.140625 141.953125 188.507812 122.660156 204.269531 104.753906 C 228.238281 80.578125 267.53125 74.691406 295.875 95 Z M 295.875 95 "/>
<path style=" stroke:none;fill-rule:nonzero;fill:rgb(50.196081%,29.411766%,100%);fill-opacity:1;" d="M 383 398 C 390.34375 397.929688 397.691406 397.878906 405.035156 397.84375 C 408.449219 397.828125 411.859375 397.808594 415.269531 397.773438 C 419.195312 397.734375 423.117188 397.71875 427.042969 397.707031 C 428.265625 397.691406 429.484375 397.675781 430.742188 397.660156 C 432.453125 397.660156 432.453125 397.660156 434.199219 397.660156 C 435.203125 397.652344 436.203125 397.644531 437.234375 397.640625 C 440.683594 398.089844 442.335938 398.734375 445 401 C 446.351562 403.570312 447.1875 406.21875 448 409 C 448.371094 410.242188 448.742188 411.484375 449.125 412.761719 C 449.484375 414.066406 449.839844 415.375 450.191406 416.683594 C 450.390625 417.402344 450.585938 418.125 450.789062 418.867188 C 451.433594 421.226562 452.066406 423.582031 452.703125 425.941406 C 452.921875 426.753906 453.140625 427.5625 453.367188 428.398438 C 454.523438 432.6875 455.675781 436.972656 456.828125 441.261719 C 458.011719 445.679688 459.210938 450.089844 460.414062 454.503906 C 461.339844 457.910156 462.257812 461.320312 463.167969 464.734375 C 463.605469 466.363281 464.046875 467.988281 464.492188 469.613281 C 465.117188 471.890625 465.722656 474.167969 466.324219 476.449219 C 466.511719 477.109375 466.695312 477.773438 466.886719 478.457031 C 468.046875 482.941406 468.0625 486.496094 467 491 C 464.273438 494.289062 462.726562 495.660156 458.554688 496.480469 C 454.136719 496.722656 451.984375 496.832031 448.484375 493.875 C 445.703125 490.65625 444.871094 488.421875 443.8125 484.328125 C 443.640625 483.679688 443.464844 483.03125 443.289062 482.363281 C 442.722656 480.230469 442.183594 478.097656 441.644531 475.960938 C 441.253906 474.472656 440.863281 472.984375 440.46875 471.496094 C 439.441406 467.59375 438.433594 463.683594 437.429688 459.773438 C 435.816406 453.503906 434.175781 447.246094 432.535156 440.984375 C 431.964844 438.800781 431.402344 436.613281 430.84375 434.425781 C 430.496094 433.089844 430.148438 431.75 429.800781 430.410156 C 429.5 429.242188 429.199219 428.074219 428.890625 426.871094 C 428.101562 423.84375 428.101562 423.84375 426 421 C 423.664062 420.523438 423.664062 420.523438 420.90625 420.566406 C 419.847656 420.546875 418.785156 420.527344 417.691406 420.507812 C 416.542969 420.5 415.394531 420.496094 414.210938 420.488281 C 413.039062 420.46875 411.863281 420.453125 410.65625 420.433594 C 406.894531 420.378906 403.136719 420.347656 399.375 420.3125 C 396.832031 420.28125 394.285156 420.246094 391.742188 420.210938 C 385.496094 420.125 379.246094 420.054688 373 420 C 373.648438 416.96875 374.664062 414.433594 376.066406 411.671875 C 376.46875 410.871094 376.871094 410.074219 377.289062 409.25 C 377.707031 408.425781 378.128906 407.601562 378.5625 406.75 C 378.988281 405.910156 379.410156 405.070312 379.851562 404.203125 C 380.894531 402.132812 381.945312 400.066406 383 398 Z M 383 398 "/>
<path style=" stroke:none;fill-rule:nonzero;fill:rgb(50.196081%,29.411766%,100%);fill-opacity:1;" d="M 77.6875 397.773438 C 78.828125 397.773438 79.96875 397.773438 81.144531 397.773438 C 82.984375 397.789062 82.984375 397.789062 84.859375 397.804688 C 86.117188 397.808594 87.378906 397.808594 88.675781 397.8125 C 92.015625 397.824219 95.355469 397.839844 98.699219 397.863281 C 102.109375 397.882812 105.523438 397.890625 108.933594 397.902344 C 115.621094 397.925781 122.3125 397.957031 129 398 C 130.675781 401.097656 132.339844 404.203125 134 407.3125 C 134.476562 408.195312 134.953125 409.074219 135.445312 409.984375 C 135.898438 410.828125 136.347656 411.675781 136.8125 412.550781 C 137.441406 413.722656 137.441406 413.722656 138.082031 414.914062 C 139 417 139 417 139 420 C 121.511719 420.328125 104.019531 420.660156 86 421 C 83.972656 425.726562 82.429688 429.632812 81.179688 434.5 C 80.855469 435.742188 80.53125 436.988281 80.195312 438.269531 C 80.027344 438.925781 79.859375 439.578125 79.6875 440.253906 C 79.15625 442.324219 78.613281 444.394531 78.070312 446.460938 C 76.523438 452.332031 74.988281 458.210938 73.476562 464.089844 C 72.546875 467.703125 71.601562 471.308594 70.644531 474.910156 C 70.285156 476.277344 69.933594 477.648438 69.585938 479.019531 C 69.097656 480.9375 68.589844 482.847656 68.082031 484.761719 C 67.796875 485.847656 67.515625 486.933594 67.226562 488.054688 C 65.75 491.597656 63.90625 493.523438 61 496 C 56.96875 497.085938 52.875 496.855469 49.054688 495.113281 C 46.160156 493.007812 45.0625 491.265625 44.238281 487.8125 C 43.972656 483.578125 44.648438 480.070312 45.765625 476.03125 C 45.964844 475.269531 46.167969 474.503906 46.371094 473.71875 C 47.03125 471.210938 47.710938 468.710938 48.390625 466.210938 C 48.855469 464.460938 49.320312 462.710938 49.785156 460.964844 C 50.757812 457.304688 51.742188 453.648438 52.730469 449.996094 C 54 445.316406 55.246094 440.632812 56.488281 435.949219 C 57.445312 432.339844 58.410156 428.730469 59.378906 425.125 C 59.84375 423.398438 60.304688 421.671875 60.761719 419.945312 C 61.40625 417.53125 62.058594 415.121094 62.714844 412.707031 C 62.902344 412 63.089844 411.289062 63.28125 410.558594 C 64.5625 405.914062 65.769531 401.582031 69.832031 398.703125 C 72.546875 397.824219 74.832031 397.761719 77.6875 397.773438 Z M 77.6875 397.773438 "/>
<path style=" stroke:none;fill-rule:nonzero;fill:rgb(30.588236%,49.803922%,100%);fill-opacity:1;" d="M 460 134 C 463.097656 135.308594 464.664062 136.617188 466.875 139.125 C 470.195312 147.609375 464.96875 159.351562 462.667969 167.855469 C 462.230469 169.488281 461.792969 171.117188 461.355469 172.75 C 460.441406 176.15625 459.523438 179.5625 458.597656 182.964844 C 457.421875 187.316406 456.257812 191.671875 455.101562 196.027344 C 454.203125 199.394531 453.292969 202.757812 452.382812 206.121094 C 451.953125 207.722656 451.523438 209.328125 451.097656 210.9375 C 450.5 213.183594 449.886719 215.425781 449.273438 217.667969 C 448.929688 218.941406 448.585938 220.21875 448.234375 221.53125 C 446.765625 225.664062 445.089844 229.957031 441 232 C 439.152344 232.089844 437.300781 232.117188 435.449219 232.113281 C 434.289062 232.113281 433.125 232.113281 431.929688 232.113281 C 430.671875 232.109375 429.414062 232.101562 428.117188 232.097656 C 426.832031 232.097656 425.546875 232.09375 424.226562 232.09375 C 420.808594 232.089844 417.390625 232.078125 413.976562 232.070312 C 410.492188 232.058594 407.003906 232.054688 403.519531 232.046875 C 396.679688 232.039062 389.839844 232.019531 383 232 C 381.324219 228.902344 379.660156 225.796875 378 222.6875 C 377.523438 221.804688 377.046875 220.925781 376.554688 220.015625 C 376.101562 219.171875 375.652344 218.324219 375.1875 217.449219 C 374.769531 216.667969 374.351562 215.886719 373.917969 215.085938 C 373 213 373 213 373 210 C 390.488281 209.671875 407.980469 209.339844 426 209 C 428.183594 204.628906 429.574219 201.476562 430.761719 196.90625 C 431.070312 195.726562 431.382812 194.542969 431.703125 193.328125 C 432.027344 192.0625 432.351562 190.800781 432.6875 189.5 C 433.035156 188.175781 433.382812 186.855469 433.730469 185.53125 C 434.828125 181.355469 435.914062 177.179688 437 173 C 438.257812 168.152344 439.523438 163.308594 440.796875 158.464844 C 441.304688 156.535156 441.800781 154.605469 442.296875 152.671875 C 442.761719 150.902344 442.761719 150.902344 443.238281 149.09375 C 443.640625 147.542969 443.640625 147.542969 444.050781 145.960938 C 445.335938 141.945312 446.851562 138.277344 449.6875 135.125 C 453.097656 133.464844 456.324219 133.464844 460 134 Z M 460 134 "/>
<path style=" stroke:none;fill-rule:nonzero;fill:rgb(30.588236%,49.411765%,100%);fill-opacity:1;" d="M 60 134 C 64.542969 136.953125 65.894531 139.417969 67.363281 144.574219 C 67.5625 145.257812 67.761719 145.9375 67.964844 146.644531 C 68.667969 149.089844 69.335938 151.542969 70 154 C 70.265625 154.980469 70.535156 155.957031 70.808594 156.964844 C 73.304688 166.109375 75.726562 175.269531 78.140625 184.4375 C 79.0625 187.921875 79.988281 191.410156 80.917969 194.894531 C 81.199219 195.964844 81.476562 197.039062 81.765625 198.140625 C 82.03125 199.132812 82.296875 200.121094 82.566406 201.140625 C 82.796875 202.007812 83.027344 202.878906 83.261719 203.773438 C 83.972656 206.246094 83.972656 206.246094 86 209 C 88.335938 209.476562 88.335938 209.476562 91.09375 209.433594 C 92.683594 209.460938 92.683594 209.460938 94.308594 209.492188 C 95.457031 209.5 96.605469 209.503906 97.789062 209.511719 C 99.550781 209.539062 99.550781 209.539062 101.34375 209.566406 C 105.105469 209.621094 108.863281 209.652344 112.625 209.6875 C 115.167969 209.71875 117.714844 209.753906 120.257812 209.789062 C 126.503906 209.875 132.753906 209.945312 139 210 C 138.429688 213.433594 137.589844 216.152344 135.933594 219.207031 C 135.53125 219.957031 135.128906 220.707031 134.710938 221.484375 C 134.292969 222.25 133.871094 223.019531 133.4375 223.8125 C 133.011719 224.601562 132.589844 225.390625 132.148438 226.203125 C 131.105469 228.136719 130.054688 230.070312 129 232 C 121.523438 232.117188 114.046875 232.203125 106.574219 232.257812 C 103.101562 232.285156 99.628906 232.320312 96.15625 232.378906 C 92.164062 232.441406 88.171875 232.464844 84.175781 232.488281 C 82.933594 232.515625 81.691406 232.539062 80.410156 232.566406 C 71.945312 232.570312 71.945312 232.570312 67.882812 230.125 C 65.257812 225.765625 63.980469 221.402344 62.6875 216.5 C 62.398438 215.449219 62.105469 214.402344 61.804688 213.320312 C 61.183594 211.058594 60.566406 208.792969 59.953125 206.53125 C 58.996094 202.988281 58.011719 199.453125 57.019531 195.917969 C 55.320312 189.855469 53.65625 183.78125 52.007812 177.703125 C 51.328125 175.203125 50.640625 172.707031 49.949219 170.210938 C 48.929688 166.539062 47.933594 162.863281 46.9375 159.1875 C 46.625 158.078125 46.316406 156.972656 45.992188 155.828125 C 44.382812 149.777344 43.550781 145.144531 45 139 C 48.769531 134.097656 53.972656 132.796875 60 134 Z M 60 134 "/>
<path style=" stroke:none;fill-rule:nonzero;fill:rgb(40.000001%,40.000001%,100%);fill-opacity:1;" d="M 86 284 C 89.398438 285.535156 89.398438 285.535156 92.730469 287.492188 C 93.328125 287.839844 93.925781 288.183594 94.542969 288.542969 C 96.433594 289.640625 98.308594 290.757812 100.1875 291.875 C 101.457031 292.617188 102.726562 293.359375 104 294.097656 C 107.34375 296.046875 110.675781 298.019531 114 300 C 114.945312 300.449219 115.890625 300.898438 116.867188 301.359375 C 119 303 119 303 119.566406 305.726562 C 119.542969 306.800781 119.515625 307.875 119.488281 308.980469 C 119.472656 310.144531 119.457031 311.308594 119.4375 312.507812 C 119.398438 313.722656 119.355469 314.9375 119.3125 316.1875 C 119.289062 317.414062 119.265625 318.640625 119.242188 319.90625 C 119.183594 322.9375 119.101562 325.96875 119 329 C 110.332031 324.851562 101.996094 320.359375 93.777344 315.378906 C 90.261719 313.261719 86.890625 311.371094 83 310 C 78.132812 314.046875 73.578125 318.351562 69.144531 322.863281 C 68.628906 323.386719 68.117188 323.90625 67.585938 324.445312 C 65.449219 326.617188 63.316406 328.792969 61.191406 330.980469 C 59.621094 332.59375 58.039062 334.199219 56.457031 335.800781 C 55.984375 336.292969 55.507812 336.785156 55.019531 337.292969 C 51.113281 341.230469 48.121094 342.960938 42.5625 343.0625 C 37.75 341.625 35.414062 339.371094 33 335 C 32.066406 332.039062 32.152344 329.972656 33 327 C 34.328125 325.140625 34.328125 325.140625 36.050781 323.253906 C 36.6875 322.558594 37.320312 321.863281 37.976562 321.144531 C 41.261719 317.664062 44.597656 314.238281 47.980469 310.851562 C 48.714844 310.113281 49.449219 309.375 50.207031 308.613281 C 51.75 307.066406 53.292969 305.523438 54.835938 303.980469 C 57.195312 301.617188 59.550781 299.242188 61.90625 296.871094 C 63.410156 295.363281 64.914062 293.859375 66.417969 292.351562 C 67.117188 291.644531 67.820312 290.933594 68.542969 290.207031 C 69.199219 289.550781 69.859375 288.894531 70.535156 288.222656 C 71.398438 287.359375 71.398438 287.359375 72.273438 286.476562 C 76.703125 282.683594 80.4375 282.628906 86 284 Z M 86 284 "/>
<path style=" stroke:none;fill-rule:nonzero;fill:rgb(40.000001%,39.607844%,100%);fill-opacity:1;" d="M 436 284 C 441.859375 288.429688 447.007812 293.859375 452.183594 299.050781 C 452.925781 299.789062 453.664062 300.53125 454.429688 301.292969 C 455.980469 302.84375 457.527344 304.394531 459.074219 305.945312 C 461.453125 308.328125 463.835938 310.703125 466.21875 313.078125 C 467.726562 314.589844 469.238281 316.101562 470.746094 317.613281 C 471.460938 318.324219 472.171875 319.035156 472.90625 319.769531 C 473.5625 320.425781 474.21875 321.085938 474.890625 321.761719 C 475.46875 322.339844 476.046875 322.917969 476.644531 323.515625 C 479.261719 326.378906 479.394531 329.074219 479.347656 332.898438 C 478.714844 336.722656 476.808594 338.378906 474 341 C 471.179688 342.664062 469.449219 342.988281 466.1875 343.0625 C 456.433594 339.8125 448.148438 328.195312 441.039062 320.945312 C 439.453125 319.324219 437.855469 317.714844 436.261719 316.101562 C 435.777344 315.605469 435.292969 315.105469 434.792969 314.59375 C 432.523438 312.304688 431.109375 311.035156 428 310 C 425.953125 310.753906 425.953125 310.753906 423.824219 312.027344 C 423.003906 312.488281 422.179688 312.945312 421.332031 313.417969 C 420.460938 313.917969 419.585938 314.421875 418.6875 314.9375 C 417.796875 315.4375 416.90625 315.9375 415.988281 316.453125 C 413.320312 317.957031 410.660156 319.476562 408 321 C 407.242188 321.433594 406.488281 321.863281 405.707031 322.3125 C 402.621094 324.078125 399.535156 325.847656 396.457031 327.636719 C 394 329 394 329 393 329 C 393 320.421875 393 311.839844 393 303 C 396.839844 300.792969 400.679688 298.585938 404.523438 296.382812 C 405.828125 295.636719 407.128906 294.886719 408.433594 294.136719 C 429.746094 281.878906 429.746094 281.878906 436 284 Z M 436 284 "/>
<path style=" stroke:none;fill-rule:nonzero;fill:rgb(18.039216%,61.960787%,100%);fill-opacity:1;" d="M 329 11 C 332.570312 12.367188 333.679688 13.527344 335.8125 16.6875 C 337.230469 20.644531 337.769531 23.847656 337 28 C 334 33.5 334 33.5 331 35 C 331.007812 35.714844 331.011719 36.429688 331.019531 37.167969 C 331.027344 40.445312 330.984375 43.722656 330.9375 47 C 330.949219 48.125 330.960938 49.25 330.96875 50.410156 C 330.832031 57.199219 330.136719 61.195312 325.210938 65.984375 C 324.484375 66.648438 323.753906 67.316406 323 68 C 321.238281 69.789062 319.476562 71.578125 317.722656 73.375 C 315.839844 75.253906 313.953125 77.128906 312.0625 79 C 311.082031 79.976562 310.101562 80.949219 309.125 81.925781 C 306.75 84.285156 304.375 86.644531 302 89 C 299.03125 87.351562 296.058594 85.699219 293 84 C 294.203125 79.195312 295.605469 78.269531 299.3125 75.097656 C 313.652344 63.34375 313.652344 63.34375 320.042969 46.808594 C 319.980469 42.78125 319.664062 38.976562 319 35 C 318.375 34.699219 317.75 34.398438 317.105469 34.089844 C 313.617188 32.285156 312.246094 30.738281 311 27 C 310.628906 21.980469 310.863281 19.003906 314 15 C 318.328125 10.144531 322.886719 10.183594 329 11 Z M 329 11 "/>
<path style=" stroke:none;fill-rule:nonzero;fill:rgb(18.431373%,61.960787%,100%);fill-opacity:1;" d="M 193 11 C 196.980469 13.269531 199.546875 15.636719 201 20 C 201.375 25.039062 201.050781 27.933594 198 32 C 196.4375 33.8125 196.4375 33.8125 195 35 C 194.339844 35 193.679688 35 193 35 C 191.660156 42.539062 190.625 50.988281 195.136719 57.6875 C 200.960938 64.996094 208.125 71.328125 215.214844 77.386719 C 216.53125 78.53125 217.773438 79.761719 219 81 C 219 81.988281 219 82.980469 219 84 C 216.03125 85.648438 213.058594 87.300781 210 89 C 206.167969 85.195312 202.34375 81.386719 198.519531 77.574219 C 197.21875 76.277344 195.914062 74.980469 194.609375 73.6875 C 192.738281 71.828125 190.871094 69.964844 189.003906 68.101562 C 188.417969 67.519531 187.832031 66.941406 187.230469 66.34375 C 183.003906 62.117188 181.886719 60.425781 181.859375 54.511719 C 181.839844 53.414062 181.820312 52.3125 181.800781 51.179688 C 181.765625 48.863281 181.75 46.546875 181.746094 44.226562 C 181.730469 37.539062 181.730469 37.539062 178.515625 31.894531 C 177.683594 31.269531 176.855469 30.644531 176 30 C 174.636719 25.90625 174.152344 22.179688 175.753906 18.058594 C 179.625 10.789062 185.210938 9.601562 193 11 Z M 193 11 "/>
</g>
</svg>
